<svg xmlns="http://www.w3.org/2000/svg" width="90" height="90" viewBox="0 0 90 90">
  <g id="ic_pause" transform="translate(-1203 -2881)">
    <g id="Ellipse_2" data-name="Ellipse 2" transform="translate(1203 2881)" fill="rgba(17,17,17,0.8)" stroke="#f5f5f5" stroke-width="4">
      <circle cx="45" cy="45" r="45" stroke="none"/>
      <circle cx="45" cy="45" r="43" fill="none"/>
    </g>
    <path id="Icon_awesome-pause" data-name="Icon awesome-pause" d="M8,30.18H3a3,3,0,0,1-3-3v-22a3,3,0,0,1,3-3H8a3,3,0,0,1,3,3v22A3,3,0,0,1,8,30.18Zm20-3v-22a3,3,0,0,0-3-3H20a3,3,0,0,0-3,3v22a3,3,0,0,0,3,3h5A3,3,0,0,0,28,27.18Z" transform="translate(1234 2909.82)" fill="#bd922f"/>
  </g>
</svg>
