<svg xmlns="http://www.w3.org/2000/svg" width="99" height="40" viewBox="0 0 99 40">
  <g id="ic_lyft_logo_colour" transform="translate(-80)">
    <rect id="Rectangle_114" data-name="Rectangle 114" width="99" height="40" transform="translate(80)" fill="#fff" opacity="0"/>
    <g id="lyft_logo_" data-name="lyft logo " transform="translate(89.922 4.961)">
      <path id="Path_7" data-name="Path 7" d="M219.611,277.707H206.259a4.974,4.974,0,0,1-4.969-4.969V262.3h2.317v10.438a2.653,2.653,0,0,0,2.65,2.65h13.352V277.7Z" transform="translate(-201.29 -249.923)" fill="#a2a2a3"/>
      <path id="Path_8" data-name="Path 8" d="M365.306,262.23l-8.585,8.585a6.937,6.937,0,0,0-1.1-2.179l6.408-6.406h3.278Z" transform="translate(-327.856 -249.865)" fill="#a2a2a3"/>
      <rect id="Rectangle_113" data-name="Rectangle 113" width="17.605" height="2.317" transform="translate(40.12 12.422)" fill="#a2a2a3"/>
      <path id="Path_9" data-name="Path 9" d="M427.227,303.128H424.91V293.3h17.5v2.319H427.227Z" transform="translate(-384.68 -275.346)" fill="#a2a2a3"/>
      <path id="Path_10" data-name="Path 10" d="M560.327,262.54v2.319h-7.644V277.9h-2.319V264.859H542.72V262.54Z" transform="translate(-481.296 -250.12)" fill="#a2a2a3"/>
      <g id="Group_68" data-name="Group 68" transform="translate(25.678)">
        <path id="Path_11" data-name="Path 11" d="M349.257,194.732c-.313-.371-.676-.707-1.018-1.051l-.18-.182c.022.031.043.061.063.092l.016.025c.2.358-.275,1.051-.586,1.445h0l-.534.577c-.228.228-.457.455-.687.684-.536.534-.214.214-.752.748q-.5.5-1.006,1a1.821,1.821,0,0,0-.162,2.421c.045.056.092.108.139.16.291.311.6.613.9.916l.067.067a1.261,1.261,0,0,1,.281-.932,4.606,4.606,0,0,1,.45-.59l.25-.281c.061-.068.126-.137.191-.2.234-.234.47-.466.7-.7.538-.534.216-.214.752-.748.331-.331.666-.66,1-.991a1.817,1.817,0,0,0,.117-2.461Z" transform="translate(-344.024 -193.5)" fill="#c09431"/>
        <path id="Path_12" data-name="Path 12" d="M351.325,220.122c-.313-.371-.676-.707-1.018-1.051l-.18-.182c.022.031.043.061.063.092l.016.025c.2.358-.275,1.051-.586,1.445h0l-.534.577c-.228.228-.457.455-.687.684-.536.534-1.1,1.092-1.641,1.626q-.5.5-1.006,1a1.821,1.821,0,0,0-.162,2.421c.045.056.092.108.139.16.291.311.6.613.9.916l.067.067c-.128-.353.273-.959.568-1.34l.05-.058q.453-.507.937-.988l.318-.317c.538-.534,1.1-1.092,1.642-1.626.331-.331.666-.66,1-.991a1.817,1.817,0,0,0,.117-2.461Z" transform="translate(-344.992 -214.322)" fill="#c09431"/>
      </g>
      <path id="Path_13" data-name="Path 13" d="M309.148,272.725v4.922h-2.317v-4.922a3.9,3.9,0,0,0-1.15-2.774l-7.721-7.721h3.278l6.082,6.082a6.45,6.45,0,0,1,.619.718,6.2,6.2,0,0,1,1.04,2.24,6.313,6.313,0,0,1,.169,1.454Z" transform="translate(-280.569 -249.865)" fill="#a2a2a3"/>
    </g>
  </g>
</svg>
