<svg id="Group_72" data-name="Group 72" xmlns="http://www.w3.org/2000/svg" width="85.33" height="29.867" viewBox="0 0 85.33 29.867">
  <path id="Path_7" data-name="Path 7" d="M220.985,278.862H206.631a5.347,5.347,0,0,1-5.341-5.341V262.3h2.491v11.22a2.852,2.852,0,0,0,2.849,2.849h14.353v2.491Z" transform="translate(-201.29 -248.995)" fill="#fff"/>
  <path id="Path_8" data-name="Path 8" d="M366.032,262.23l-9.229,9.229a7.457,7.457,0,0,0-1.184-2.342l6.889-6.887h3.524Z" transform="translate(-325.624 -248.938)" fill="#fff"/>
  <rect id="Rectangle_113" data-name="Rectangle 113" width="18.925" height="2.491" transform="translate(43.372 13.354)" fill="#fff"/>
  <path id="Path_9" data-name="Path 9" d="M427.4,303.865H424.91V293.3h18.807v2.493H427.4Z" transform="translate(-381.42 -274)" fill="#fff"/>
  <path id="Path_10" data-name="Path 10" d="M561.647,262.54v2.493H553.43v14.021h-2.493V265.033H542.72V262.54Z" transform="translate(-476.317 -249.189)" fill="#fff"/>
  <g id="Group_68" data-name="Group 68" transform="translate(27.736)">
    <path id="Path_11" data-name="Path 11" d="M349.649,194.825c-.337-.4-.727-.76-1.095-1.129l-.193-.2c.023.033.046.066.068.1l.017.027c.215.385-.3,1.129-.63,1.553h0l-.574.621c-.246.246-.491.489-.739.735-.576.574-.23.23-.808.8q-.542.537-1.081,1.075a1.958,1.958,0,0,0-.174,2.6c.048.06.1.116.149.172.313.335.64.659.965.984l.072.072a1.355,1.355,0,0,1,.3-1,4.949,4.949,0,0,1,.483-.634l.269-.3c.066-.073.135-.147.205-.217.251-.251.5-.5.756-.752.578-.574.232-.23.808-.8.356-.356.716-.71,1.071-1.066a1.953,1.953,0,0,0,.126-2.646Z" transform="translate(-344.024 -193.5)" fill="#fff"/>
    <path id="Path_12" data-name="Path 12" d="M351.784,220.215c-.336-.4-.727-.76-1.095-1.129-.019-.019-.093-.095-.193-.2.023.033.046.066.068.1l.017.027c.215.385-.3,1.129-.63,1.553h0l-.574.621c-.246.246-.491.489-.739.735-.576.574-1.185,1.174-1.764,1.748q-.542.537-1.081,1.075a1.958,1.958,0,0,0-.174,2.6c.048.06.1.116.149.172.313.335.64.659.965.984l.072.072c-.137-.379.294-1.031.611-1.441l.054-.062q.487-.545,1.008-1.062l.342-.34c.578-.574,1.187-1.174,1.766-1.748.356-.356.716-.71,1.071-1.066a1.953,1.953,0,0,0,.126-2.646Z" transform="translate(-344.976 -213.98)" fill="#fff"/>
  </g>
  <path id="Path_13" data-name="Path 13" d="M309.987,273.512V278.8H307.5v-5.291a4.191,4.191,0,0,0-1.236-2.982l-8.3-8.3h3.524l6.539,6.538a6.944,6.944,0,0,1,.665.772,6.668,6.668,0,0,1,1.118,2.408,6.782,6.782,0,0,1,.182,1.563Z" transform="translate(-279.169 -248.938)" fill="#fff"/>
</svg>
