<svg xmlns="http://www.w3.org/2000/svg" width="20.5" height="20.5" viewBox="0 0 20.5 20.5">
  <g id="Icon_ionic-ios-checkmark-circle-outline" data-name="Icon ionic-ios-checkmark-circle-outline" transform="translate(0.25 0.25)">
    <path id="Path_1" data-name="Path 1" d="M20.722,13.135l-.845-.871a.182.182,0,0,0-.134-.058h0a.174.174,0,0,0-.134.058l-5.86,5.915-2.133-2.137a.185.185,0,0,0-.269,0l-.855.857a.192.192,0,0,0,0,.274l2.69,2.7a.85.85,0,0,0,.562.274.891.891,0,0,0,.557-.265h0l6.422-6.468A.206.206,0,0,0,20.722,13.135Z" transform="translate(-5.602 -6.172)" fill="#30c119" stroke="#30c119" stroke-width="0.5"/>
    <path id="Path_2" data-name="Path 2" d="M13.375,4.721a8.65,8.65,0,1,1-6.12,2.534,8.6,8.6,0,0,1,6.12-2.534m0-1.346a10,10,0,1,0,10,10,10,10,0,0,0-10-10Z" transform="translate(-3.375 -3.375)" fill="#30c119" stroke="#30c119" stroke-width="0.5"/>
  </g>
</svg>
