<svg xmlns="http://www.w3.org/2000/svg" width="20" height="20" viewBox="0 0 20 20">
  <g id="Group_93" data-name="Group 93" transform="translate(-315 -7020)">
    <circle id="Ellipse_9" data-name="Ellipse 9" cx="10" cy="10" r="10" transform="translate(315 7020)" fill="#999"/>
    <path id="Icon_simple-instagram" data-name="Icon simple-instagram" d="M6,0C4.37,0,4.166.007,3.526.036A4.424,4.424,0,0,0,2.07.315a2.938,2.938,0,0,0-1.063.692A2.928,2.928,0,0,0,.315,2.07,4.411,4.411,0,0,0,.036,3.526C.006,4.166,0,4.37,0,6S.007,7.833.036,8.473A4.427,4.427,0,0,0,.315,9.93a2.942,2.942,0,0,0,.692,1.063,2.934,2.934,0,0,0,1.063.692,4.43,4.43,0,0,0,1.456.279c.64.03.843.036,2.473.036s1.833-.007,2.473-.036a4.44,4.44,0,0,0,1.457-.279A3.066,3.066,0,0,0,11.685,9.93a4.427,4.427,0,0,0,.279-1.456C11.994,7.833,12,7.63,12,6s-.007-1.833-.036-2.473a4.437,4.437,0,0,0-.279-1.456,2.945,2.945,0,0,0-.692-1.063A2.923,2.923,0,0,0,9.93.315,4.414,4.414,0,0,0,8.473.036C7.833.006,7.63,0,6,0ZM6,1.08c1.6,0,1.793.008,2.425.036a3.306,3.306,0,0,1,1.114.207,1.974,1.974,0,0,1,1.139,1.138,3.313,3.313,0,0,1,.207,1.113c.028.633.035.823.035,2.425s-.007,1.793-.037,2.425a3.377,3.377,0,0,1-.21,1.114,1.905,1.905,0,0,1-.45.691,1.872,1.872,0,0,1-.69.448,3.337,3.337,0,0,1-1.118.207c-.637.028-.824.035-2.429.035s-1.793-.007-2.429-.037a3.4,3.4,0,0,1-1.118-.21,1.858,1.858,0,0,1-.689-.45,1.822,1.822,0,0,1-.45-.69,3.405,3.405,0,0,1-.21-1.118c-.023-.63-.031-.824-.031-2.422s.008-1.793.031-2.43A3.4,3.4,0,0,1,1.3,2.445a1.779,1.779,0,0,1,.45-.69,1.775,1.775,0,0,1,.689-.449A3.321,3.321,0,0,1,3.548,1.1c.638-.023.825-.03,2.429-.03L6,1.08ZM6,2.919A3.081,3.081,0,1,0,9.081,6,3.081,3.081,0,0,0,6,2.919ZM6,8A2,2,0,1,1,8,6,2,2,0,0,1,6,8ZM9.923,2.8a.72.72,0,1,1-.72-.719A.721.721,0,0,1,9.923,2.8Z" transform="translate(319 7024)"/>
  </g>
</svg>
