<svg xmlns="http://www.w3.org/2000/svg" width="20" height="20" viewBox="0 0 20 20">
  <g id="Group_90" data-name="Group 90" transform="translate(-263 -7020)">
    <circle id="Ellipse_7" data-name="Ellipse 7" cx="10" cy="10" r="10" transform="translate(263 7020)" fill="#999"/>
    <path id="Icon_awesome-youtube" data-name="Icon awesome-youtube" d="M12.8,5.82a1.508,1.508,0,0,0-1.061-1.068A35.633,35.633,0,0,0,7.05,4.5a35.633,35.633,0,0,0-4.688.252A1.508,1.508,0,0,0,1.3,5.82,15.817,15.817,0,0,0,1.05,8.727,15.817,15.817,0,0,0,1.3,11.634a1.485,1.485,0,0,0,1.061,1.051,35.633,35.633,0,0,0,4.688.252,35.633,35.633,0,0,0,4.688-.252A1.485,1.485,0,0,0,12.8,11.634a15.817,15.817,0,0,0,.251-2.907A15.817,15.817,0,0,0,12.8,5.82ZM5.823,10.512V6.943L8.959,8.727,5.823,10.512Z" transform="translate(265.95 7021.5)"/>
  </g>
</svg>
